<svg height="512" width="512" xmlns="http://www.w3.org/2000/svg"><path d="M15.484 177.215h481.032c8.551 0 15.484-11.813 15.484-24.484V15.484C512 6.932 505.068 0 496.516 0H15.484C6.932 0 0 6.932 0 15.484v137.247c0 14.921 6.932 24.484 15.484 24.484z" fill="#de5974"/><path d="M496.516 168.215H15.484C6.932 168.215 0 161.282 0 152.731v18.581c0 8.551 6.932 15.484 15.484 15.484h481.032c8.552 0 15.484-6.933 15.484-15.484v-18.581c0 8.551-6.932 15.484-15.484 15.484z" fill="#c7495d"/><path d="M451.02 66.986l-18.029-2.62a8.826 8.826 0 01-6.645-4.828l-8.062-16.337c-3.237-6.559-12.591-6.559-15.828 0l-8.063 16.337a8.826 8.826 0 01-6.645 4.828l-18.029 2.62c-7.239 1.052-10.129 9.948-4.891 15.053l13.046 12.716a8.826 8.826 0 012.538 7.812l-2.6 15.158h65.115l-2.6-15.158a8.826 8.826 0 012.538-7.812l13.045-12.716c5.239-5.105 2.349-14.001-4.89-15.053z" fill="#ffe07d"/><path d="M373.987 270.638c-10.851 0-19.647 8.796-19.647 19.647v-13.499c0-10.851-8.796-19.647-19.647-19.647-10.851 0-19.647 8.796-19.647 19.647v-13.499c0-10.851-8.796-19.647-19.647-19.647-10.851 0-19.647 8.796-19.647 19.647v-87.956c0-10.851-8.796-19.647-19.647-19.647-10.851 0-19.647 8.796-19.647 19.647V350.95h-.294l-31.614-35.431a52.146 52.146 0 00-38.911-17.429c-7.656 0-12.524 8.192-8.863 14.916l30.832 56.641a145.585 145.585 0 0027.514 35.867l35.263 33.554v8.694l57.156 9 57.156-9v-8.694s28.936-30.516 28.936-101.496v-47.288c.001-10.85-8.795-19.646-19.646-19.646z" fill="#f0c69e"/><path d="M250.386 466.343l56.9 9 57.412-9v-18.58H250.386z" fill="#e6ba94"/><path d="M296.653 66.986l-18.029-2.62a8.826 8.826 0 01-6.645-4.828l-8.062-16.337c-3.237-6.559-12.591-6.559-15.828 0l-8.063 16.337a8.824 8.824 0 01-6.645 4.828l-18.028 2.62c-7.239 1.052-10.129 9.948-4.891 15.053l13.046 12.716a8.826 8.826 0 012.538 7.812l-2.6 15.158h65.115l-2.6-15.158a8.826 8.826 0 012.538-7.812l13.046-12.716c5.238-5.105 2.347-14.001-4.892-15.053zM142.286 66.986l-18.028-2.62a8.826 8.826 0 01-6.645-4.828l-8.062-16.337c-3.237-6.559-12.591-6.559-15.828 0L85.66 59.539a8.826 8.826 0 01-6.645 4.828l-18.028 2.62c-7.239 1.052-10.129 9.948-4.891 15.053l13.045 12.716a8.826 8.826 0 012.538 7.812l-2.6 15.158h65.114l-2.6-15.158a8.826 8.826 0 012.538-7.812l13.046-12.716c5.238-5.106 2.348-14.002-4.891-15.054z" fill="#ffe07d"/><path d="M246.251 502.419h122.071c5.5 0 9.959-7.181 9.959-18.959v-7.158c0-5.5-4.459-9.959-9.959-9.959H246.251c-5.5 0-9.959 4.459-9.959 9.959v7.158c0 11.539 4.458 18.959 9.959 18.959z" fill="#e5ecf7"/><path d="M368.322 493.419H246.251c-5.5 0-9.959-4.459-9.959-9.959v18.581c0 5.5 4.459 9.959 9.959 9.959h122.071c5.5 0 9.959-4.459 9.959-9.959V483.46c0 5.5-4.459 9.959-9.959 9.959z" fill="#b9cbea"/><path d="M134.194 117.726l-28.451-14.957a8.822 8.822 0 00-8.213 0l-28.451 14.957-.48 2.797c-1.237 7.209 6.33 12.707 12.805 9.303l16.125-8.477a8.822 8.822 0 018.213 0l16.125 8.477c6.475 3.404 14.042-2.094 12.805-9.303zM288.561 117.726l-28.451-14.957a8.824 8.824 0 00-8.214 0l-28.451 14.957-.48 2.797c-1.237 7.209 6.331 12.707 12.805 9.303l16.125-8.477a8.824 8.824 0 018.214 0l16.125 8.477c6.475 3.404 14.042-2.094 12.805-9.303zM442.928 117.726l-28.451-14.957a8.824 8.824 0 00-8.214 0l-28.451 14.957-.48 2.797c-1.237 7.209 6.33 12.707 12.805 9.303l16.125-8.477a8.824 8.824 0 018.214 0l16.125 8.477c6.474 3.404 14.042-2.094 12.805-9.303z" fill="#ffd064"/></svg>